<?xml version="1.0" encoding="UTF-8" standalone="no"?>
<svg
   xmlns:dc="http://purl.org/dc/elements/1.1/"
   xmlns:cc="http://creativecommons.org/ns#"
   xmlns:rdf="http://www.w3.org/1999/02/22-rdf-syntax-ns#"
   xmlns:svg="http://www.w3.org/2000/svg"
   xmlns="http://www.w3.org/2000/svg"
   xmlns:sodipodi="http://sodipodi.sourceforge.net/DTD/sodipodi-0.dtd"
   xmlns:inkscape="http://www.inkscape.org/namespaces/inkscape"
   xml:space="preserve"
   id="svg4768"
   viewBox="0.171 0.201 2880.0002 640"
   height="60"
   width="270"
   version="1.0"
   inkscape:version="0.91 r"
   sodipodi:docname="realgud.svg"
   inkscape:export-filename="/home/clement/desktop/realgud.png"
   inkscape:export-xdpi="180"
   inkscape:export-ydpi="180"><sodipodi:namedview
     pagecolor="#ffffff"
     bordercolor="#666666"
     borderopacity="1"
     objecttolerance="10"
     gridtolerance="10"
     guidetolerance="10"
     inkscape:pageopacity="0"
     inkscape:pageshadow="2"
     inkscape:window-width="1920"
     inkscape:window-height="1030"
     id="namedview72"
     showgrid="false"
     inkscape:zoom="4"
     inkscape:cx="115.47042"
     inkscape:cy="38.714008"
     inkscape:window-x="0"
     inkscape:window-y="0"
     inkscape:window-maximized="1"
     inkscape:current-layer="svg4768"
     fit-margin-top="3"
     fit-margin-left="3"
     fit-margin-right="3"
     fit-margin-bottom="3" />
<!-- Parts of this image extracted from GNU Emacs' icon (the white wave-like shape) -->
<defs
     id="defs4770" /><rect
     style="display:none;fill:none"
     id="rect4772"
     y="101.52715"
     x="-665.96661"
     height="512"
     width="512" /><g
     style="display:none"
     id="g4788"
     transform="translate(-666.13763,101.32614)"><g
       style="display:inline"
       id="g4790" /></g><g
     style="display:none"
     id="g4806"
     transform="translate(-666.13763,101.32614)"><g
       style="display:inline"
       id="g4808"><path
         style="display:none;fill:#050505"
         id="path4810"
         d="m 349.098,256.651 c -0.265,-0.254 37.637,27.605 39.421,25.012 6.362,-9.252 82.046,-93.137 84.784,-116.236 0.242,-2.003 -0.516,-4.096 -0.516,-4.096 0,0 -1.19,-0.144 -6.325,-4.314 -2.692,-2.192 -5.483,-4.581 -5.483,-4.581 -16.054,0.998 -57.885,41.559 -111.062,103.568"
         inkscape:connector-curvature="0" /></g></g><text
     xml:space="preserve"
     style="font-style:normal;font-variant:normal;font-weight:500;font-stretch:normal;font-size:688.39953613px;line-height:125%;font-family:Ubuntu;-inkscape-font-specification:'Ubuntu Medium';letter-spacing:0px;word-spacing:0px;fill:#000000;fill-opacity:1;stroke:none;stroke-width:1px;stroke-linecap:butt;stroke-linejoin:miter;stroke-opacity:1"
     x="-25.458374"
     y="569.73444"
     id="text3492"
     sodipodi:linespacing="125%"><tspan
       sodipodi:role="line"
       id="tspan3494"
       x="-25.458374"
       y="569.73444"
       style="font-style:normal;font-variant:normal;font-weight:500;font-stretch:normal;font-family:Ubuntu;-inkscape-font-specification:'Ubuntu Medium';fill:#000000">R</tspan></text>
<g
     id="g3515"
     transform="matrix(0.89624184,0,0,0.89624184,406.60585,174.82476)"
     inkscape:export-xdpi="349.85999"
     inkscape:export-ydpi="349.85999"><path
       style="opacity:1;fill:#000000;fill-opacity:1;stroke:none;stroke-width:13.33816814;stroke-miterlimit:4;stroke-dasharray:none;stroke-opacity:1"
       id="path4235-9"
       d="m 501.09769,256.201 c 0,136.65118 -109.6574,247.42885 -244.92663,247.42885 -135.26924,0 -244.92675,-110.77767 -244.92675,-247.42886 0,-136.6512 109.65751,-247.4288435 244.92675,-247.4288435 135.26923,0 244.92663,110.7776435 244.92663,247.4288435 z"
       inkscape:connector-curvature="0" /><path
       style="opacity:1;fill:#a40000;fill-opacity:1;stroke:#ffffff;stroke-width:13.33816814;stroke-miterlimit:4;stroke-dasharray:none;stroke-opacity:1"
       id="path4235"
       d="m 489.28614,256.20099 c 0,130.06122 -104.36919,235.49665 -233.11509,235.49665 -128.7459,0 -233.1152,-105.43543 -233.1152,-235.49665 0,-130.06122 104.3693,-235.496645 233.1152,-235.496645 128.7459,0 233.11509,105.435425 233.11509,235.496645 z"
       inkscape:connector-curvature="0" /><path
       style="fill:#ffffff;fill-opacity:1;fill-rule:evenodd;stroke:#000000;stroke-width:0;stroke-linecap:butt;stroke-linejoin:miter;stroke-miterlimit:4;stroke-dasharray:none;stroke-opacity:1"
       id="path4237"
       d="m 175.0003,422.31057 c 0,0 19.7385,1.39634 45.1312,-0.84159 10.2834,-0.9063 49.3267,-4.74128 78.5169,-11.14289 0,0 35.5899,-7.61669 54.6301,-14.63335 19.9225,-7.34185 30.7636,-13.57304 35.6433,-22.40243 -0.2128,-1.80907 1.5024,-8.22438 -7.685,-12.07788 -23.4887,-9.85199 -50.73,-8.06998 -104.6338,-9.21285 -59.7772,-2.05391 -79.6627,-12.05971 -90.2556,-20.11838 -10.1579,-8.17519 -5.05,-30.79254 38.4742,-50.71499 21.9244,-10.60898 107.8705,-30.18698 107.8705,-30.18698 -28.9451,-14.30725 -82.9186,-39.45893 -94.0134,-44.89023 -9.7308,-4.76348 -25.303,-11.93595 -28.6785,-20.61368 -3.8271,-8.33089 9.0383,-15.50726 16.2248,-17.56236 23.1448,-6.67602 55.8182,-10.82538 85.5548,-11.29122 14.9472,-0.23417 17.3734,-1.19586 17.3734,-1.19586 20.6243,-3.42116 34.2014,-17.53175 28.5446,-39.87876 -5.0783,-22.81046 -31.8617,-36.21365 -57.3138,-31.57361 -23.9682,4.36956 -81.7378,21.15007 -81.7378,21.15007 71.4075,-0.61803 83.3592,0.57378 88.697,8.03676 3.1523,4.40742 -1.4324,10.45068 -20.4765,13.56099 -20.733,3.38616 -63.8312,7.46399 -63.8312,7.46399 -41.3449,2.4554 -70.4682,2.61974 -79.203,21.11314 -5.7065,12.08196 6.0854,22.7633 11.2538,29.4493 21.8407,24.28905 53.3882,37.38879 73.6948,47.03553 7.6405,3.62963 30.0586,10.48407 30.0586,10.48407 -65.8782,-3.62335 -113.4003,16.6055 -141.2764,39.89622 -31.5288,29.16261 -17.581403,63.92354 47.0124,85.3268 38.1517,12.6416 57.0725,18.58695 113.9815,13.46232 33.52,-1.80673 38.8041,-0.73155 39.1383,2.01892 0.4705,3.87242 -37.2311,13.49165 -47.524,16.4606 -26.1853,7.55306 -94.8276,22.80438 -95.1712,22.87835 z"
       inkscape:connector-curvature="0" /></g><text
     xml:space="preserve"
     style="font-style:normal;font-variant:normal;font-weight:500;font-stretch:normal;font-size:688.3994751px;line-height:125%;font-family:Ubuntu;-inkscape-font-specification:'Ubuntu Medium';letter-spacing:0px;word-spacing:0px;fill:#000000;fill-opacity:1;stroke:none;stroke-width:1px;stroke-linecap:butt;stroke-linejoin:miter;stroke-opacity:1"
     x="860.70557"
     y="569.73444"
     id="text3492-3"
     sodipodi:linespacing="125%"><tspan
       sodipodi:role="line"
       id="tspan3494-6"
       x="860.70557"
       y="569.73444"
       style="font-style:normal;font-variant:normal;font-weight:500;font-stretch:normal;font-family:Ubuntu;-inkscape-font-specification:'Ubuntu Medium';fill:#000000">alGUD</tspan></text>
</svg>
